HIERARCHY
ROOT Hips
{
	OFFSET 0.000000 0.000000 0.000000 
	CHANNELS 6 Xposition Yposition Zposition Yrotation Zrotation Xrotation 
	JOINT Lumbar
	{
		OFFSET 0.000000 0.000000 0.000000 
		CHANNELS 3 Zrotation Xrotation Yrotation
		JOINT Neck
		{
			OFFSET 0.000000 0.445665 0.000000 
			CHANNELS 3 Zrotation Xrotation Yrotation
			End Site
			{
				OFFSET 0.000000 0.227535 0.000000 
			}
		}
		JOINT RightShoulder
		{
			OFFSET 0.019635 0.377685 0.194865 
			CHANNELS 3 Zrotation Xrotation Yrotation
			JOINT RightElbow
			{
				OFFSET 0.000000 -0.243375 0.000000 
				CHANNELS 2 Zrotation Yrotation
				JOINT RightWrist
				{
					OFFSET 0.000000 -0.264825 0.000000 
					CHANNELS 2 Zrotation Xrotation
					End Site
					{
						OFFSET 0.006600 -0.176220 0.000990 
					}
				}
			}
		}
		JOINT LeftShoulder
		{
			OFFSET 0.019635 0.377685 -0.194865 
			CHANNELS 3 Zrotation Xrotation Yrotation
			JOINT LeftElbow
			{
				OFFSET 0.000000 -0.243375 0.000000 
				CHANNELS 2 Zrotation Yrotation
				JOINT LeftWrist
				{
					OFFSET 0.000000 -0.264825 0.000000 
					CHANNELS 2 Zrotation Xrotation
					End Site
					{
						OFFSET 0.006600 -0.176220 -0.000990 
					}
				}
			}
		}
	}
	JOINT RightHip
	{
		OFFSET 0.052140 -0.069960 0.075570 
		CHANNELS 3 Zrotation Xrotation Yrotation
		JOINT RightKnee
		{
			OFFSET 0.000000 -0.402270 0.000000 
			CHANNELS 1 Zrotation
			JOINT RightAnkle
			{
				OFFSET 0.000000 -0.404085 0.000000 
				CHANNELS 3 Zrotation Xrotation Yrotation
				End Site
				{
					OFFSET 0.204105 -0.089430 0.008415 
				}
			}
		}
	}
	JOINT LeftHip
	{
		OFFSET 0.052140 -0.069960 -0.075570 
		CHANNELS 3 Zrotation Xrotation Yrotation
		JOINT LeftKnee
		{
			OFFSET 0.000000 -0.402270 0.000000 
			CHANNELS 1 Zrotation
			JOINT LeftAnkle
			{
				OFFSET 0.000000 -0.404085 0.000000 
				CHANNELS 3 Zrotation Xrotation Yrotation
				End Site
				{
					OFFSET 0.204105 -0.089430 -0.008415 
				}
			}
		}
	}
}
MOTION
Frames: 33
Frame Time: 0.02
0.0851 0.00817 0.06771 345.99522 -7.81084 -1.04994 41.18864 -5.54151 -9.7637 -15.1832 12.1574 -2.11994 -49.31824 -6.30879 -22.45278 40.22431 83.84928 -34.82205 -3.30742 -62.25697 50.19576 -33.96509 117.69943 -120.84292 -56.63132 7.25651 14.62009 -1.09124 -24.68023 -48.47152 -20.26029 -0.16874 -2.90622 19.45761 0.34385 14.73341 -25.58012 -7.30046 3.84377 4.14015
0.0861 0.00852 0.06712 346.68357 -7.90129 -1.07391 41.24798 -5.51864 -9.28492 -15.33993 11.22789 -2.11994 -49.23945 -6.16217 -22.37052 40.45968 83.8052 -34.52922 -3.31763 -62.12028 50.12862 -33.63706 117.68243 -120.7853 -55.82596 7.27509 14.63382 -1.00357 -24.77715 -48.31022 -20.27484 -0.1603 -2.90212 19.51592 0.32335 14.76731 -25.60047 -7.23566 3.77907 4.10286
0.08719 0.00885 0.06672 347.38447 -7.99712 -1.09176 41.31053 -5.50876 -8.81751 -15.51234 10.25366 -2.11994 -49.1856 -5.97338 -22.34269 40.70516 83.84165 -34.56754 -3.33902 -61.88807 50.12942 -33.42827 117.66267 -120.46063 -54.77178 7.26303 14.63774 -0.91334 -24.87276 -48.13778 -20.2887 -0.14954 -2.89661 19.55575 0.36121 15.03737 -25.62812 -7.14966 3.69459 4.05415
0.08824 0.0092 0.06625 348.08059 -8.08938 -1.11236 41.3703 -5.49468 -8.34478 -15.67806 9.30444 -2.11994 -49.12561 -5.80083 -22.289 40.94949 83.84299 -34.44428 -3.35485 -61.7135 50.0855 -33.14808 117.64562 -120.30457 -53.86708 7.27149 14.64338 -0.81917 -24.96129 -47.96657 -20.3024 -0.13964 -2.89162 19.60288 0.3708 15.18386 -25.65175 -7.07522 3.61986 4.0112
0.08928 0.0095 0.0657 348.77233 -8.18605 -1.13234 41.43602 -5.47298 -7.87143 -15.843 8.3304 -2.11994 -49.04538 -5.63947 -22.23811 41.18033 83.83262 -34.35019 -3.37225 -61.48305 50.09588 -32.93239 117.6223 -119.96325 -52.81609 7.25399 14.66138 -0.74213 -25.07438 -47.80935 -20.3184 -0.13088 -2.88731 19.6546 0.38485 15.38669 -25.67815 -6.99383 3.54264 3.96627
0.09037 0.00989 0.06536 349.47631 -8.27504 -1.15244 41.48963 -5.4704 -7.40286 -16.01236 7.40023 -2.11994 -49.01221 -5.44545 -22.1966 41.4411 83.87018 -34.2858 -3.38937 -61.34372 50.01069 -32.61511 117.61111 -119.93592 -52.00567 7.28223 14.65091 -0.63151 -25.13933 -47.62306 -20.32891 -0.11902 -2.88113 19.69253 0.40467 15.53364 -25.70063 -6.92141 3.46565 3.92259
0.09164 0.01054 0.06557 350.21163 -8.3402 -1.1747 41.51271 -5.51738 -6.94129 -16.1965 6.59195 -2.11994 -49.10714 -5.16965 -22.14708 41.78378 83.98906 -34.15631 -3.4007 -61.49139 49.64785 -31.97227 117.63816 -120.87824 -51.94813 7.44855 14.56621 -0.41644 -25.06717 -47.33813 -20.32971 -0.09967 -2.87089 19.69522 0.42534 15.45954 -25.70996 -6.87921 3.39379 3.88525
0.09297 0.01126 0.06598 350.95882 -8.39762 -1.19749 41.52254 -5.58317 -6.48515 -16.38326 5.83205 -2.11994 -49.24743 -4.86354 -22.10792 42.15546 84.15779 -34.05633 -3.41168 -61.73143 49.18685 -31.22714 117.67683 -122.13731 -52.13565 7.66106 14.45343 -0.17056 -24.94821 -47.02971 -20.32413 -0.07715 -2.85867 19.68507 0.45046 15.32394 -25.71525 -6.84656 3.32278 3.8495
0.09426 0.01193 0.06629 351.70019 -8.45959 -1.21976 41.53636 -5.64048 -6.02856 -16.56457 5.05699 -2.11994 -49.36417 -4.57191 -22.07891 42.51303 84.32695 -33.99167 -3.42451 -61.92079 48.7692 -30.54004 117.70759 -123.22528 -52.19182 7.84929 14.35118 0.05283 -24.85506 -46.74407 -20.31791 -0.05571 -2.84681 19.68177 0.47433 15.22457 -25.7227 -6.80919 3.25147 3.81287
0.0956 0.0127 0.06662 352.44364 -8.51779 -1.24241 41.55997 -5.69815 -5.5628 -16.76449 4.25061 -2.11994 -49.49485 -4.2733 -21.99347 42.87625 84.40897 -33.74487 -3.43113 -62.1434 48.35805 -29.80768 117.74933 -124.41852 -52.32282 8.04994 14.25508 0.31276 -24.74375 -46.40106 -20.32623 -0.03573 -2.83708 19.67317 0.49646 15.10007 -25.72887 -6.77266 3.17914 3.77646
0.09685 0.01327 0.06696 353.18561 -8.58143 -1.26522 41.55864 -5.75914 -5.11858 -16.92598 3.52266 -2.11994 -49.60611 -3.98573 -22.02178 43.23274 84.67382 -33.86483 -3.44978 -62.32019 47.91057 -29.14444 117.771 -125.47149 -52.36053 8.23659 14.14331 0.50314 -24.65769 -46.17949 -20.30323 -0.01198 -2.82257 19.67327 0.5231 15.00804 -25.73687 -6.73696 3.10939 3.74018
0.09798 0.01329 0.06723 353.9187 -8.66624 -1.28231 41.50327 -5.82653 -4.72185 -16.98135 2.99044 -2.11994 -49.65973 -3.70886 -22.41012 43.57844 85.51429 -35.12398 -3.50754 -62.34569 47.37492 -28.6915 117.73431 -126.05754 -52.07203 8.36879 13.96369 0.49906 -24.66755 -46.23462 -20.19125 0.02149 -2.79464 19.69674 0.55651 15.04019 -25.7488 -6.70118 3.04666 3.70337
0.09901 0.01309 0.06749 354.65015 -8.75605 -1.30081 41.42116 -5.89616 -4.34876 -16.99775 2.53748 -2.11994 -49.69081 -3.44919 -22.90399 43.91376 86.5225 -36.72668 -3.57636 -62.32277 46.80819 -28.31236 117.67699 -126.49318 -51.68423 8.48607 13.77518 0.42247 -24.70276 -46.42388 -20.04877 0.05857 -2.76214 19.7303 0.59509 15.10313 -25.7629 -6.66606 2.98653 3.66676
0.1 0.01298 0.06777 355.38354 -8.84067 -1.32254 41.34357 -5.96359 -3.97154 -17.0315 2.05425 -2.11994 -49.72742 -3.19999 -23.3166 44.2437 87.39741 -38.08021 -3.63611 -62.32391 46.26289 -27.90218 117.62928 -127.00037 -51.34854 8.61358 13.61144 0.37628 -24.71537 -46.59522 -19.92284 0.09405 -2.73217 19.76175 0.63378 15.13708 -25.77753 -6.63073 2.9253 3.6305
0.10134 0.01292 0.06802 356.11237 -8.93701 -1.32755 41.29736 -6.03695 -3.56574 -17.06688 1.54802 -2.11994 -49.78547 -2.87347 -23.86728 44.61629 88.50952 -39.81939 -3.71251 -62.31951 45.68255 -27.47692 117.58129 -127.50502 -50.99097 8.72906 13.35926 0.34384 -24.76879 -46.58804 -19.78514 0.12973 -2.70009 19.78196 0.66143 15.2292 -25.78626 -6.5952 2.86393 3.59256
0.10193 0.0127 0.06832 356.85006 -9.01066 -1.36821 41.18009 -6.09788 -3.22607 -17.08957 1.10836 -2.11994 -49.79298 -2.71125 -24.15897 44.89846 89.17368 -40.84704 -3.75739 -62.31396 45.17011 -27.1032 117.52846 -127.97507 -50.65325 8.86425 13.28949 0.26275 -24.74928 -46.97982 -19.66507 0.16548 -2.67151 19.82856 0.71432 15.21218 -25.80707 -6.56029 2.80322 3.558
0.10054 0.01205 0.06869 357.61341 -9.01635 -1.50241 40.86893 -6.12706 -3.05415 -17.08677 0.82925 -2.11994 -49.6655 -3.0094 -23.6786 44.92191 88.5007 -39.73583 -3.70808 -62.31684 44.84416 -26.84331 117.47018 -128.38546 -50.38486 9.06782 13.72634 0.08652 -24.47293 -48.48197 -19.59877 0.2035 -2.65235 19.94195 0.82559 14.85113 -25.86755 -6.5254 2.74605 3.53413
0.0984 0.01124 0.06912 358.38559 -8.99966 -1.67307 40.4879 -6.14305 -2.94945 -17.07259 0.61493 -2.11994 -49.48784 -3.47031 -22.9401 44.85627 87.38248 -37.91448 -3.62755 -62.3198 44.58963 -26.63527 117.40707 -128.76452 -50.14043 9.28968 14.34714 -0.13952 -24.12971 -50.37185 -19.55173 0.24094 -2.6371 20.08217 0.96334 14.38516 -25.93893 -6.49132 2.68913 3.51343
0.09659 0.01052 0.06956 359.15305 -8.99616 -1.83024 40.14184 -6.16286 -2.82017 -17.06353 0.37316 -2.11994 -49.33357 -3.84994 -22.3396 44.83948 86.50593 -36.47565 -3.56413 -62.32246 44.30865 -26.41074 117.34426 -129.15735 -49.89029 9.49605 14.88333 -0.35803 -23.85229 -52.05908 -19.49748 0.27664 -2.62099 20.2127 1.09629 13.99161 -26.00078 -6.45786 2.63038 3.49028
0.09484 0.00973 0.06987 359.92315 -8.98077 -1.97525 39.78176 -6.19166 -2.66735 -17.05307 0.12551 -2.11994 -49.17622 -4.26161 -21.65376 44.78902 85.46691 -34.79166 -3.4885 -62.32471 44.00151 -26.15855 117.28894 -129.54836 -49.61518 9.73181 15.42325 -0.51866 -23.43468 -53.86889 -19.4357 0.32074 -2.60097 20.33349 1.20133 13.49815 -26.08176 -6.42037 2.57846 3.47118
0.09277 0.00903 0.07046 360.69027 -8.98389 -2.15324 39.434 -6.19894 -2.5782 -17.04366 -0.09519 -2.11994 -49.01348 -4.64423 -21.08512 44.78517 84.66129 -33.45114 -3.43106 -62.32831 43.76583 -25.97572 117.2169 -129.93609 -49.39879 9.91141 15.99945 -0.80649 -23.28225 -55.50583 -19.39453 0.34741 -2.58995 20.48022 1.36764 13.1831 -26.12581 -6.39131 2.51299 3.44469
0.08994 0.00873 0.07182 361.44326 -9.05062 -2.42155 39.14299 -6.1467 -2.65684 -17.03746 -0.26088 -2.11994 -48.85001 -4.91358 -20.88305 44.95345 84.58018 -33.17549 -3.42853 -62.33689 43.71338 -25.96787 117.10224 -130.33655 -49.34088 9.92712 16.62866 -1.47056 -23.97068 -56.64194 -19.40579 0.32371 -2.60404 20.69652 1.72331 13.42473 -26.06206 -6.38669 2.40438 3.39435
0.0868 0.00852 0.07346 362.19353 -9.1351 -2.71999 38.86586 -6.07389 -2.79537 -17.03353 -0.40153 -2.11994 -48.68294 -5.14691 -20.80997 45.16799 84.75181 -33.27562 -3.44569 -62.34685 43.72967 -26.02803 116.97075 -130.73337 -49.3412 9.88665 17.28824 -2.25436 -24.91181 -57.57981 -19.43706 0.28284 -2.62688 20.93672 2.13478 13.84275 -25.96142 -6.39031 2.28308 3.33692
0.08381 0.00819 0.07496 362.94767 -9.20716 -2.99961 38.57885 -6.01261 -2.90108 -17.03016 -0.55156 -2.11994 -48.51594 -5.39202 -20.69199 45.34691 84.82847 -33.24386 -3.45602 -62.35557 43.71276 -26.05966 116.84528 -131.12264 -49.31401 9.87473 17.93569 -2.95769 -25.67549 -58.557 -19.45939 0.25144 -2.64491 21.16343 2.50309 14.15406 -25.87958 -6.38924 2.17141 3.28452
0.08074 0.00817 0.07654 363.6915 -9.29803 -3.30327 38.30456 -5.94151 -3.03356 -17.01897 -0.70721 -2.11994 -48.35235 -5.6615 -20.51176 45.58329 84.81423 -33.0372 -3.45718 -62.36678 43.70763 -26.08455 116.72576 -131.54746 -49.29243 9.85037 18.5835 -3.76979 -26.69756 -59.74937 -19.48243 0.21326 -2.66646 21.40371 2.94722 14.57166 -25.78912 -6.39206 2.04382 3.22475
0.07778 0.00754 0.07802 364.45541 -9.35271 -3.56216 38.00784 -5.88632 -3.1227 -17.02559 -0.8467 -2.11994 -48.18326 -5.87042 -20.48937 45.71344 85.04444 -33.27591 -3.48144 -62.3732 43.69209 -26.13714 116.59087 -131.90045 -49.27219 9.83876 19.23411 -4.38687 -27.24686 -60.45745 -19.50761 0.18478 -2.68285 21.61914 3.24665 14.81382 -25.70823 -6.38888 1.9459 3.17839
0.07518 0.00515 0.07916 365.28093 -9.31649 -3.70198 37.64774 -5.8783 -3.08568 -17.07361 -0.94205 -2.11994 -47.98396 -5.91242 -20.9234 45.52752 85.98368 -34.80791 -3.57433 -62.36551 43.64184 -26.26485 116.40915 -132.03146 -49.24498 9.87196 19.89563 -4.40268 -26.38961 -59.73547 -19.54158 0.19016 -2.68163 21.77681 3.13009 14.50528 -25.65814 -6.36564 1.93698 3.1726
0.07271 0.00215 0.08019 366.12573 -9.24113 -3.79357 37.26481 -5.88714 -3.00154 -17.14064 -1.02307 -2.11994 -47.78194 -5.89532 -21.50414 45.23533 87.14615 -36.75194 -3.68831 -62.35295 43.57647 -26.41512 116.2139 -132.09357 -49.21576 9.92031 20.55636 -4.22346 -25.05533 -58.55645 -19.57564 0.20533 -2.67513 21.90572 2.86644 14.01864 -25.61964 -6.33635 1.95766 3.18023
0.0702 -0.00053 0.08127 366.95802 -9.17465 -3.89887 36.89115 -5.88986 -2.93275 -17.20405 -1.11508 -2.11994 -47.59254 -5.91021 -21.98381 45.00017 88.1437 -38.40606 -3.78622 -62.34317 43.51043 -26.54455 116.03076 -132.20532 -49.18572 9.96477 21.20912 -4.156 -23.96579 -57.67852 -19.60428 0.2141 -2.67181 22.03626 2.67171 13.62956 -25.57898 -6.31077 1.9621 3.18049
0.06759 -0.00338 0.08236 367.80586 -9.14517 -4.03876 36.52171 -5.88642 -2.88999 -17.24732 -1.18858 -2.11994 -47.35717 -5.9029 -22.60984 44.73112 89.41109 -40.49692 -3.91148 -62.33155 43.47825 -26.72043 115.82291 -132.2456 -49.1674 9.99596 21.89678 -3.99765 -22.7678 -56.40342 -19.65568 0.23052 -2.66548 22.21455 2.46985 13.17752 -25.52441 -6.2814 1.97765 3.18575
0.06522 -0.00602 0.0834 368.62616 -9.03061 -4.09619 36.13898 -5.89873 -2.78315 -17.33582 -1.2959 -2.11994 -47.21415 -5.92751 -22.96824 44.50501 90.17459 -41.78287 -3.98543 -62.32197 43.3716 -26.80483 115.66222 -132.41081 -49.12046 10.05745 22.51294 -3.97756 -21.67815 -55.84485 -19.66023 0.23353 -2.6641 22.28798 2.24762 12.8106 -25.50144 -6.25842 1.97753 3.18401
0.06351 -0.00797 0.0843 369.36351 -8.67773 -3.92483 35.71605 -5.96223 -2.49253 -17.55477 -1.51447 -2.11994 -47.35106 -6.06102 -22.51636 44.43977 89.41851 -40.64269 -3.90454 -62.3248 43.05794 -26.62396 115.64669 -133.00563 -49.02191 10.21382 22.91543 -4.41305 -21.01037 -57.41474 -19.52828 0.19748 -2.67715 22.06379 2.0009 12.73434 -25.56825 -6.25411 1.9243 3.15845
0.06203 -0.00967 0.08516 370.07283 -8.24293 -3.67419 35.28225 -6.03902 -2.14226 -17.81659 -1.76497 -2.11994 -47.5766 -6.22773 -21.79583 44.41864 88.15947 -38.69502 -3.7726 -62.32907 42.67069 -26.35135 115.67717 -133.71764 -48.89069 10.39799 23.24861 -4.98863 -20.46481 -59.71313 -19.35028 0.1476 -2.69542 21.7377 1.73914 12.74701 -25.66571 -6.25648 1.85476 3.12561
